<?xml version="1.0" standalone="no"?>
<!DOCTYPE svg PUBLIC "-//W3C//DTD SVG 20010904//EN"
 "http://www.w3.org/TR/2001/REC-SVG-20010904/DTD/svg10.dtd">
<svg version="1.0" xmlns="http://www.w3.org/2000/svg"
 width="1024.000000pt" height="1024.000000pt" viewBox="0 0 1024.000000 1024.000000"
 preserveAspectRatio="xMidYMid meet">
<metadata>
Created by potrace 1.14, written by Peter Selinger 2001-2017
</metadata>
<g transform="translate(0.000000,1024.000000) scale(0.100000,-0.100000)"
fill="#000000" stroke="none">
<path d="M2787 10184 c-1 -1 -33 -4 -72 -8 -38 -3 -83 -9 -100 -12 -16 -3 -39
-7 -50 -9 -118 -16 -298 -89 -417 -167 -98 -65 -232 -202 -283 -290 -91 -155
-158 -341 -179 -493 -3 -16 -8 -52 -11 -80 -9 -60 -9 -7860 -1 -7925 3 -25 7
-55 10 -66 2 -12 7 -38 10 -59 13 -78 80 -258 129 -343 75 -131 154 -222 271
-314 33 -26 67 -52 73 -58 23 -19 208 -110 223 -110 9 0 20 -4 25 -9 12 -10
131 -50 171 -57 16 -3 37 -7 47 -10 10 -3 30 -7 45 -9 15 -3 37 -7 50 -9 88
-19 539 -29 549 -13 2 4 10 4 16 0 14 -10 4075 -9 4125 1 17 3 47 8 65 11 178
30 355 106 511 222 76 56 202 181 234 233 9 14 19 27 22 30 14 13 62 94 95
160 48 96 87 215 113 345 3 17 7 1821 8 4010 2 3878 2 3983 -17 4089 -21 123
-66 260 -111 344 -78 143 -199 281 -319 359 -35 24 -69 47 -75 51 -24 20 -216
105 -259 115 -5 2 -15 6 -21 9 -6 4 -26 10 -45 13 -19 3 -50 10 -69 15 -19 5
-48 11 -65 14 -16 2 -50 8 -75 12 -34 6 -4615 14 -4623 8z m4397 -4230 c3 -8
2 -12 -4 -9 -6 3 -10 10 -10 16 0 14 7 11 14 -7z m65 -89 c11 -19 17 -35 13
-35 -5 0 -16 16 -25 35 -9 19 -15 35 -13 35 2 0 13 -16 25 -35z m69 -118 c47
-96 59 -126 67 -172 l5 -30 -10 30 c-5 17 -10 33 -10 37 0 4 -22 51 -48 103
-27 52 -46 95 -42 95 3 0 20 -29 38 -63z m-258 -1497 c-17 -21 -58 -67 -90
-101 -33 -33 -60 -62 -60 -64 0 -1 -26 -30 -57 -63 -32 -34 -86 -92 -120 -129
-158 -173 -191 -209 -228 -248 -22 -24 -69 -76 -105 -116 -36 -40 -95 -105
-131 -144 -37 -38 -77 -82 -90 -97 -70 -78 -237 -260 -319 -348 -19 -20 -69
-74 -110 -120 -41 -46 -88 -98 -105 -115 -16 -18 -66 -72 -110 -120 -44 -48
-91 -100 -105 -115 -14 -15 -63 -69 -110 -121 -47 -51 -113 -122 -146 -158
-133 -143 -177 -190 -300 -327 -129 -143 -144 -158 -148 -153 -3 2 26 36 62
75 37 39 99 106 137 149 92 103 160 177 215 235 25 26 77 83 115 125 39 43 88
98 110 121 22 23 69 75 105 114 36 40 81 89 100 110 50 53 133 144 220 241 41
45 92 100 113 121 20 21 37 41 37 43 0 2 28 33 63 68 34 36 89 95 122 133 33
37 74 82 90 99 148 160 196 213 214 234 11 13 63 69 115 125 52 55 103 111
114 123 10 13 46 51 78 86 32 35 83 90 113 123 121 132 235 254 239 254 2 0
-10 -18 -28 -40z m-2341 -2554 c-2 -3 -35 -40 -74 -82 -115 -127 -125 -137
-125 -130 0 4 15 24 33 43 38 43 70 78 117 132 19 21 39 40 44 40 5 1 7 -1 5
-3z m-209 -224 c0 -4 -23 -32 -52 -62 -29 -30 -86 -93 -128 -140 -42 -47 -94
-104 -116 -127 -21 -23 -73 -78 -114 -124 -41 -45 -86 -94 -100 -108 -14 -15
-51 -54 -82 -88 -32 -34 -58 -59 -58 -56 0 6 175 199 229 254 15 14 60 63 101
109 110 123 141 157 222 244 40 43 77 84 81 92 9 15 17 18 17 6z m-662 -721
c-3 -8 -30 -38 -176 -198 -21 -24 -41 -43 -45 -43 -4 0 19 28 51 63 51 54 80
86 152 168 17 20 23 23 18 10z m-244 -273 c-35 -40 -54 -58 -54 -51 0 8 61 73
69 73 2 0 -4 -10 -15 -22z m-64 -63 c0 -8 -121 -140 -132 -144 -5 -2 16 25 49
59 32 34 62 68 66 76 8 14 17 19 17 9z m-159 -182 c-12 -20 -14 -14 -5 12 4 9
9 14 11 11 3 -2 0 -13 -6 -23z m-31 -37 c0 -2 -7 -7 -16 -10 -8 -3 -12 -2 -9
4 6 10 25 14 25 6z"/>
</g>
</svg>
