<svg width="122" height="33" fill="none" xmlns="http://www.w3.org/2000/svg"><path fill-rule="evenodd" clip-rule="evenodd" d="m37.34 2.874-9.725 29.96h5.636l2.299-7.401h8.798l2.3 7.4h5.635L42.558 2.875h-.005a2.708 2.708 0 0 0-5.166 0h-.046Zm2.609 8.397-3.02 9.723h6.04l-3.02-9.723Zm77.97-1.663a3.533 3.533 0 0 0 3.59-3.451 3.6 3.6 0 0 0-3.602-3.602 3.603 3.603 0 0 0-3.602 3.602 3.55 3.55 0 0 0 3.614 3.45Zm-2.231 21.884-.099-.157-.087-.191-.087-.227-.058-.232-.041-.227-.029-.145V11.635h5.589V30.4l-.023.174-.029.14-.058.203-.076.203-.116.244-.07.128-.087.128-.128.163-.087.098-.139.157-.134.117-.186.156-.145.1-.099.057-.128.076-.174.07-.076.029-.069.029-.116.04-.186.047-.146.029-.156.029-.128.011-.157.018h-.145l-.128-.017-.145-.012-.128-.018-.174-.04-.186-.047-.186-.058-.146-.07-.244-.127-.156-.087-.134-.088-.157-.145-.157-.14-.157-.174-.133-.156-.099-.175Zm-5.42 1.237.349.053-.308-5.665-.273-.058-.215-.07-.372-.116-.302-.145-.233-.11-.215-.134-.186-.11-.203-.145-.203-.157-.215-.175-.186-.215-.157-.174-.116-.116-.128-.168-.145-.192-.145-.256-.157-.302-.128-.273-.134-.261-.098-.372-.07-.285-.047-.308-.052-.285v-6.558h3.997v-4.486h-4.009V4.902l-.029-.157v-.128l-.04-.128v-.087l-.047-.087V4.21l-.069-.11-.041-.105-.058-.087-.058-.081-.047-.058-.04-.058-.059-.076-.058-.07-.04-.04-.058-.076-.059-.04-.046-.047-.07-.07-.098-.07-.07-.057-.076-.047-.058-.04-.087-.059-.099-.058-.145-.058-.099-.058-.116-.04h-.116l-.11-.041-.134-.03-.157-.028-.145-.03h-.79l-.099.03h-.116l-.146.04-.127.04-.099.047-.145.058-.099.041-.116.058-.116.07-.088.058-.098.076-.088.07-.069.057-.087.088-.076.058-.07.087-.058.058-.069.081-.047.076-.058.07-.041.058-.04.087-.047.07-.04.075v.04l-.03.059v.058l-.029.087-.04.087-.029.081V4.745l-.029.087v6.814h-2.324v4.503h2.324v6.669l.046.36.029.378.041.401.058.343.087.43.116.348.082.36.133.372.157.372.145.378.256.528.203.32.204.314.244.447.215.302.156.227.186.22.273.332.215.244.32.313.412.39.39.302.215.203.435.285.384.22.36.204.488.255.401.204.447.186.581.232.529.14.581.162.517.099.36.04Zm-19.026.116h5.553V22.33s-.104-10.184-10.625-10.573c-3.823-.14-10.242 2.486-10.666 10.602-.076 1.505.731 9.876 10.631 10.597a11.556 11.556 0 0 0 4.067-.82V25.45s-1.639 2.114-4.032 1.992c-2.394-.122-5.06-1.55-5.09-5.1-.028-3.55 3.353-5.107 5.09-5.09a5.124 5.124 0 0 1 5.089 5.09l-.017 10.503ZM70.925 11.594l-17.527-.006v5.543l10.84-.035-10.198 9.999a3.174 3.174 0 0 0-1.345 2.602A3.236 3.236 0 0 0 56 32.857a3.31 3.31 0 0 0 .118-.007l.003.007 17.684-.012V27.31H61.304l11.422-10.196-.05-.153a3.137 3.137 0 0 0-1.739-5.328l-.012-.038Z" fill="#29A2FF"/><path d="M5.3 1.172h12.531s3.58.058 3.637 3.637v24.138a3.724 3.724 0 0 1-3.788 3.626H5.283l11.369-12.404s3.404-3.154.36-6.286L5.3 1.172Z" fill="#FF971D"/><path d="m.21 6.51 9.511 10.324-9.51 10.388V6.51Z" fill="#FF971D"/><path fill-rule="evenodd" clip-rule="evenodd" d="m.205 27.222 9.516-10.388L.205 6.511V5.105s-.244-3.933 3.811-3.933H5.3l11.805 12.816s2.696 2.753 0 5.64C14.55 22.395 5.254 32.574 5.254 32.574h-1s-4.066.133-4.066-4.026l.017-1.325Z" fill="#fff"/></svg>